# File created by Blade
# Date/Time:  Tue Apr 07 20:49:23 2015
# Frame Rate: 120.000 fps
#------------------------------------------------------
:FULLY-SPECIFIED
:DEGREES
541
root 1.430087 33.997010 -6.440214 -30.678648 55.215625 -114.926591
Spine -42.313274 -11.195256 34.767639
Head -14.585790 23.835104 30.803551
LeftShoulder -22.957997 36.206136 33.641312
LeftArm 84.094396 -73.250890 -74.492831
LeftForeArm 17.171873 0.000000 17.618759
LeftHand 7.898758 -0.000000 17.778088
LeftHandThumb1 -26.253704 0.000000 33.147579
RightShoulder -23.754494 -9.316151 -25.358122
RightArm -19.947599 37.405804 27.286763
RightForeArm 63.827088 0.000000 -1.861922
RightHand 3.765738 -0.000000 17.572862
RightHandThumb1 -24.326973 -0.000000 -32.862282
LeftUpLeg -73.094498 24.636566 33.989845
LeftLeg -5.107441 -0.000000 0.000000
LeftFoot 6.225420 21.004385 5.268531
LeftToeBase -13.012534 -0.000000 0.000000
RightUpLeg 30.264152 20.727573 -19.426339
RightLeg 64.567879 -0.000000 -0.000000
RightFoot 55.061294 10.346317 -0.656666
RightToeBase 9.893834 -0.000000 -0.000000
542
root 1.414709 33.996524 -6.435459 -30.490973 55.146557 -114.900450
Spine -42.259226 -11.166782 34.832604
Head -14.659703 23.995050 30.669713
LeftShoulder -23.046306 36.258001 33.484284
LeftArm 83.403347 -73.119591 -74.104501
LeftForeArm 17.132740 -0.000000 17.335352
LeftHand 7.717373 -0.000000 17.577225
LeftHandThumb1 -26.253704 0.000000 33.147579
RightShoulder -23.728148 -9.316056 -25.438696
RightArm -19.837474 37.216529 27.358159
RightForeArm 64.085986 -0.000000 -1.970448
RightHand 3.735198 0.000000 17.541771
RightHandThumb1 -24.326973 -0.000000 -32.862282
LeftUpLeg -73.145978 24.769654 34.059495
LeftLeg -5.202732 -0.000000 0.000000
LeftFoot 6.353087 21.083327 5.480464
LeftToeBase -12.987840 -0.000000 0.000000
RightUpLeg 30.395152 20.824391 -19.352830
RightLeg 64.407211 -0.000000 -0.000000
RightFoot 55.055474 10.401486 -0.691406
RightToeBase 9.631267 -0.000000 -0.000000
543
root 1.399962 33.997969 -6.434027 -30.291755 55.079761 -114.852992
Spine -42.182102 -11.129025 34.874082
Head -14.781770 24.142762 30.555309
LeftShoulder -23.169839 36.362702 33.332713
LeftArm 82.535004 -72.988993 -73.648154
LeftForeArm 16.877549 -0.000000 17.237075
LeftHand 7.663209 -0.000000 16.976505
LeftHandThumb1 -26.253704 0.000000 33.147579
RightShoulder -23.730622 -9.259901 -25.501377
RightArm -19.742002 36.963586 27.389286
RightForeArm 64.340237 -0.000000 -2.098216
RightHand 3.676268 -0.000000 17.554628
RightHandThumb1 -24.326973 -0.000000 -32.862282
LeftUpLeg -73.204594 24.900195 34.105786
LeftLeg -5.283395 -0.000000 0.000000
LeftFoot 6.508743 21.144191 5.700896
LeftToeBase -12.961655 -0.000000 0.000000
RightUpLeg 30.525322 20.943620 -19.241945
RightLeg 64.300329 -0.000000 -0.000000
RightFoot 55.019490 10.350366 -0.700679
RightToeBase 9.612495 -0.000000 -0.000000
544
root 1.383632 34.001141 -6.433487 -30.056150 55.011066 -114.770857
Spine -42.103837 -11.066690 34.877652
Head -14.888189 24.266384 30.476204
LeftShoulder -23.168658 36.330416 33.252524
LeftArm 82.010366 -72.897357 -73.485625
LeftForeArm 16.894988 -0.000000 17.036382
LeftHand 7.359597 0.000000 16.877012
LeftHandThumb1 -26.253704 0.000000 33.147579
RightShoulder -23.720594 -9.196964 -25.573621
RightArm -19.748938 36.813043 27.350994
RightForeArm 64.458151 0.000000 -2.198959
RightHand 3.599229 -0.000000 17.701707
RightHandThumb1 -24.326973 -0.000000 -32.862282
LeftUpLeg -73.268406 25.036139 34.172451
LeftLeg -5.314238 -0.000000 0.000000
LeftFoot 6.622537 21.230721 5.859767
LeftToeBase -12.925373 -0.000000 0.000000
RightUpLeg 30.599559 21.010911 -19.247315
RightLeg 64.225549 -0.000000 -0.000000
RightFoot 55.020744 10.367054 -0.837722
RightToeBase 9.492897 -0.000000 -0.000000
